REM MD5 00a821cdab3e238840adcdcc6309aa81
FILE "Essential PlayStation 9 (Europe, Australia).bin" BINARY
  TRACK 01 MODE2/2352
    INDEX 01 00:00:00
  TRACK 02 AUDIO
    INDEX 00 24:39:60
    INDEX 01 24:41:60
  TRACK 03 AUDIO
    INDEX 00 28:21:63
    INDEX 01 28:23:63
  TRACK 04 AUDIO
    INDEX 00 31:40:32
    INDEX 01 31:42:32
  TRACK 05 AUDIO
    INDEX 00 33:40:49
    INDEX 01 33:42:49
REM LEADOUT 36:44:05
